PathFileType	3	(X/Y/Z)	D:\minhoCalibration\240510\subject5_KPNP\preferred\preferred02.trc
DataRate	CameraRate	NumFrames	NumMarkers	Units	OrigDataRate	OrigDataStartFrame	OrigNumFrames
200.0	200.0	18	10	mm	200.0	285	151	
Frame#	Time	Left_Ankle_Outer1			Left_Ankle_Inner1			Left_Knee_Outer1			Left_Knee_Inner1			Left_Wrist1			Right_Wrist1			Right_Knee_Inner1			Right_Knee_Outer1			Right_Ankle_Inner1			Right_Ankle_Outer1			
		X1	Y1	Z1	X2	Y2	Z2	X3	Y3	Z3	X4	Y4	Z4	X5	Y5	Z5	X6	Y6	Z6	X7	Y7	Z7	X8	Y8	Z8	X9	Y9	Z9	X10	Y10	Z10	
285	1.415	-650.93372	78.63768	-606.29608	-677.422	88.136345	-559.84723	-473.69345	525.68268	-562.53656	-518.49475	511.08075	-481.73642	-567.73322	961.08545	-726.55963	-620.59607	1188.3357	-490.42126	-455.52356	1014.8196	-66.937729	-497.49057	1093.0049	-77.959923	-445.77277	929.49609	370.89874	-518.125	996.12408	376.13797
286	1.42	-651.974	78.090828	-605.82343	-677.64429	87.249374	-559.88696	-475.77164	525.35577	-563.1178	-521.0683	510.83392	-482.44498	-566.11865	961.32031	-725.10608	-622.11572	1188.5942	-490.12091	-457.47614	1014.0269	-65.730888	-503.13257	1090.1785	-75.84166	-445.98535	923.10205	370.31314	-520.47998	987.24884	376.5903
287	1.425	-652.48785	77.805748	-605.65985	-678.24408	86.789894	-559.57544	-477.59946	524.86731	-564.33807	-523.14569	510.59402	-483.4903	-564.2594	961.56232	-724.45166	-623.58655	1188.8291	-489.48355	-460.08047	1012.6492	-64.553101	-508.24826	1087.1198	-73.960976	-446.31567	916.57684	369.75253	-522.56537	977.81732	376.71338
288	1.43	-652.71136	77.594223	-605.62927	-678.94104	86.671555	-559.08606	-479.00787	524.56488	-565.93896	-524.42181	510.33377	-484.68234	-562.83521	961.59692	-723.78064	-625.12897	1188.5575	-488.8306	-463.15277	1010.4977	-63.406864	-513.08832	1083.7823	-72.200195	-446.76349	909.58435	369.03207	-525.12646	968.33356	377.03784
289	1.435	-652.60284	77.509109	-605.82312	-678.72736	86.685341	-559.46533	-480.08954	524.34747	-567.76129	-525.06342	510.18475	-486.02069	-561.85376	962.74872	-722.51038	-626.60907	1188.1652	-487.98349	-466.4559	1007.7382	-62.252201	-517.73419	1080.2053	-70.464958	-447.30121	902.22449	368.16684	-527.49615	958.54858	376.94482
290	1.44	-652.19122	77.64518	-606.18744	-678.44006	87.090851	-559.71692	-480.78088	524.38281	-569.79675	-524.93707	510.14935	-487.47928	-560.14911	963.88348	-722.26318	-628.12268	1187.6478	-486.92319	-469.92636	1004.5751	-61.309116	-522.23749	1076.4528	-68.648834	-448.23184	894.44562	366.96259	-529.98096	948.27869	376.49329
291	1.445	-651.8446	77.761436	-606.69751	-678.09955	87.396736	-560.23499	-481.15393	524.77637	-571.91034	-524.37219	510.37646	-489.06506	-558.31799	965.263	-721.93134	-629.77686	1187.0538	-485.52658	-473.49234	1001.2423	-60.320457	-526.58319	1072.536	-66.877113	-449.49118	886.20856	365.74435	-532.5976	937.73743	375.90634
292	1.45	-651.36469	78.132248	-607.32831	-677.50201	87.941917	-560.90631	-481.48157	525.26196	-574.04901	-523.58881	510.80328	-490.67325	-556.92792	967.12555	-721.3988	-631.52563	1186.1342	-484.38959	-476.82138	997.70526	-59.637791	-530.86487	1068.4608	-65.176491	-451.06317	877.51648	364.0835	-535.35339	926.65607	374.858
293	1.455	-650.93646	78.457275	-607.71606	-677.00269	89.219505	-560.82294	-481.77203	525.91016	-576.02917	-522.78516	511.4404	-492.27228	-554.53143	969.28577	-721.50885	-633.58661	1185.4166	-482.78876	-479.97064	993.91205	-59.203163	-535.18542	1064.2371	-63.624054	-453.0946	868.38873	362.42468	-538.45856	915.33856	373.6001
294	1.46	-650.52582	78.774841	-608.11456	-675.99384	88.663239	-562.737	-481.99039	526.50012	-578.02234	-521.98187	512.20898	-493.77933	-553.6156	970.26843	-720.88678	-635.48114	1184.2559	-481.81509	-483.64474	990.17932	-58.542885	-539.35474	1059.7607	-62.374348	-455.66284	858.97559	360.01025	-541.91833	903.66449	372.04929
295	1.465	-650.19415	79.040314	-608.43982	-676.15521	90.07093	-561.71326	-482.26425	527.16974	-579.69006	-521.36804	512.88867	-495.14981	-550.534	972.7804	-721.47906	-637.56677	1183.1284	-480.82892	-487.00012	986.1236	-58.295322	-543.53461	1055.147	-61.441025	-458.33771	849.28674	357.81973	-545.08838	891.70221	369.76758
296	1.47	-649.92914	79.20433	-608.60315	-676.08942	90.144974	-562.24506	-482.56256	527.67932	-581.21832	-520.92853	513.49792	-496.32587	-549.41962	974.17737	-720.57092	-639.84155	1181.9777	-479.65067	-490.2211	981.92743	-58.304176	-547.56952	1050.3228	-60.811008	-461.62964	838.80255	354.85901	-549.5921	879.89825	367.96548
297	1.475	-649.80542	79.499222	-608.71661	-675.64197	90.107056	-562.45013	-482.814	528.03741	-582.48926	-520.61676	513.99127	-497.39957	-547.76428	975.3576	-720.39215	-642.13574	1180.4342	-478.86993	-493.27051	977.45416	-58.685715	-551.43195	1045.2592	-60.48637	-465.42685	828.22473	351.7092	-553.98932	867.7663	365.36572
298	1.48	-649.80176	79.751381	-608.69061	-675.39996	90.409798	-562.3551	-483.07773	528.29755	-583.5033	-520.53973	514.33441	-498.24368	-544.58392	977.84344	-720.72717	-644.95404	1179.8092	-477.11087	-496.46799	972.66931	-59.213413	-555.26617	1040.132	-60.384953	-468.94888	817.48901	349.44681	-557.88104	855.02728	361.87753
299	1.485	-649.92023	79.95636	-608.49487	-675.65045	90.872215	-561.87067	-483.32532	528.41931	-584.33099	-520.67114	514.59149	-499.00754	-542.44623	979.24438	-720.51355	-647.72424	1178.1927	-476.62216	-499.50552	967.53308	-60.143215	-558.65979	1034.7667	-60.689857	-473.3291	806.1886	346.15201	-563.08264	842.3999	358.6796
300	1.49	-649.96454	80.123543	-608.3219	-675.74377	90.964226	-561.64856	-483.51364	528.54706	-584.89429	-521.46582	514.63403	-499.52515	-540.30383	980.45728	-720.18018	-650.09808	1176.7477	-476.91498	-502.37668	962.19281	-61.404087	-561.7998	1029.3148	-61.219585	-478.29507	794.3465	342.60236	-568.40851	829.48792	354.92325
301	1.495	-650.12921	80.148911	-608.12463	-675.29657	90.724968	-562.25806	-483.92795	528.53326	-585.29187	-521.45428	514.70575	-500.22977	-537.45068	981.69257	-720.37048	-652.39764	1175.788	-477.21289	-505.33008	956.49963	-62.871464	-564.73969	1023.837	-61.876774	-483.42197	782.31415	338.72485	-574.07336	816.35065	350.77051
302	1.5	-650.14948	80.292198	-608.11835	-675.78418	90.952057	-561.34235	-484.4104	528.5141	-585.56525	-522.37524	514.81586	-500.82178	-534.92072	982.72754	-719.90759	-654.61041	1175.0581	-477.81668	-508.34525	950.62115	-64.626205	-567.4751	1018.3491	-62.613091	-489.14511	769.86877	334.40616	-579.84955	802.89606	346.01981
